<?xml version="1.0" encoding="utf-8"?>
<!-- Generator: Adobe Illustrator 19.0.0, SVG Export Plug-In . SVG Version: 6.00 Build 0)  -->
<svg version="1.1" id="Capa_1" xmlns="http://www.w3.org/2000/svg" xmlns:xlink="http://www.w3.org/1999/xlink" x="0px" y="0px"
	 viewBox="-785 426 107.3 200" style="enable-background:new -785 426 107.3 200;" xml:space="preserve">
<style type="text/css">
	.st0{fill:none;stroke:#606161;stroke-miterlimit:10;}
</style>
<path id="XMLID_1_" class="st0" d="M-779.8,449.4v156.7c0,0,0.4,14.4,13.6,14.4s67,0,67,0s15-1.3,14.8-15.8
	c-0.1-14.4,0-157.5,0-157.5s0.3-13.7-14.2-14.2s-68.9,0-68.9,0S-780.6,434-779.8,449.4z"/>
<path id="XMLID_2_" class="st0" d="M-724.9,451h-13.6c-0.6,0-1.1-0.5-1.1-1.1l0,0c0-0.6,0.5-1.1,1.1-1.1h13.6c0.6,0,1.1,0.5,1.1,1.1
	l0,0C-723.7,450.5-724.2,451-724.9,451z"/>
<circle id="XMLID_3_" class="st0" cx="-748.7" cy="449.9" r="2.1"/>
<rect id="XMLID_4_" x="-772.5" y="465.4" class="st0" width="81.1" height="122.4"/>
<circle id="XMLID_5_" class="st0" cx="-732.3" cy="603.7" r="8.8"/>
<g id="XMLID_7_">
	<path id="XMLID_64_" class="st0" d="M-716,432.7c0,0,0-0.3,0-0.6c0-0.3,0.9-0.6,2-0.6h11.3c1.1,0,2,0.3,2,0.6c0,0.3,0,0.6,0,0.6"/>
</g>
<g id="XMLID_8_">
	<path id="XMLID_62_" class="st0" d="M-779.8,450.2c0,0-0.2,0-0.4,0s-0.4,0.5-0.4,1v6.6c0,0.6,0.1,1,0.2,1c0.1,0,0.2,0,0.2,0"/>
</g>
<g id="XMLID_9_">
	<path id="XMLID_60_" class="st0" d="M-779.8,469.8c0,0-0.2,0-0.4,0s-0.4,0.4-0.4,1v4.4c0,0.5,0.1,1,0.2,1c0.1,0,0.2,0,0.2,0"/>
</g>
<g id="XMLID_10_">
	<path id="XMLID_58_" class="st0" d="M-779.8,486.5c0,0-0.2,0-0.4,0s-0.4,0.5-0.4,1v4.1c0,0.5,0.1,1,0.2,1c0.1,0,0.2,0,0.2,0"/>
</g>
</svg>
