<?xml version="1.0" encoding="utf-8"?>
<!-- Generator: Adobe Illustrator 19.0.0, SVG Export Plug-In . SVG Version: 6.00 Build 0)  -->
<svg version="1.1" id="Capa_1" xmlns="http://www.w3.org/2000/svg" xmlns:xlink="http://www.w3.org/1999/xlink" x="0px" y="0px"
	 viewBox="-905 441 107.3 200" style="enable-background:new -905 441 107.3 200;" xml:space="preserve">
<style type="text/css">
	.st0{display:none;}
	.st1{fill:none;stroke:#606161;stroke-miterlimit:10;}
</style>
<g id="QHFtQY.tif" class="st0">
	
		<image style="display:inline;overflow:visible;enable-background:new    ;" width="500" height="500" id="Layer_0_1_" xlink:href="70AB3C6005EA9542.png"  transform="matrix(0.4 0 0 0.4 -905 441)">
	</image>
</g>
<g id="a2GYXF.tif" class="st0">
	
		<image style="display:inline;overflow:visible;enable-background:new    ;" width="1638" height="953" id="Layer_0_2_" xlink:href="70AB3C6005EA9543.png"  transform="matrix(0.2054 0 0 0.2055 -1019.7807 445.131)">
	</image>
</g>
<g id="_x35_R8RCi.tif" class="st0">
	
		<image style="display:inline;overflow:visible;" width="1200" height="630" id="Layer_0_3_" xlink:href="70AB3C6005EA954D.png"  transform="matrix(0.3536 0 0 0.3536 -1090.6833 416.2628)">
	</image>
</g>
<path id="XMLID_1_" class="st1" d="M-898.8,460.5v161.9c0,0,0.4,14.9,13.4,14.9s65.6,0,65.6,0s14.6-1.4,14.5-16.3
	c-0.1-14.9,0-162.7,0-162.7s0.2-14.2-14-14.7c-14.2-0.5-67.4,0-67.4,0S-899.6,444.7-898.8,460.5z"/>
<path id="XMLID_2_" class="st1" d="M-844.6,456.8h-13.6c-0.6,0-1.1-0.5-1.1-1.1l0,0c0-0.6,0.5-1.1,1.1-1.1h13.6
	c0.6,0,1.1,0.5,1.1,1.1l0,0C-843.4,456.3-843.9,456.8-844.6,456.8z"/>
<circle id="XMLID_3_" class="st1" cx="-867.6" cy="456.8" r="2.1"/>
<rect id="XMLID_4_" x="-893.3" y="467" class="st1" width="82.1" height="143"/>
<circle id="XMLID_5_" class="st1" cx="-851.8" cy="624.6" r="7.3"/>
<g id="XMLID_7_">
	<path id="XMLID_64_" class="st1" d="M-836,444c0,0,0-0.3,0-0.6s0.9-0.6,2-0.6h11.3c1.1,0,2,0.3,2,0.6s0,0.6,0,0.6"/>
</g>
<g id="XMLID_9_">
	<path id="XMLID_60_" class="st1" d="M-898.7,492.9c0,0-0.1,0-0.3,0s-0.3,0.5-0.3,1v2.6c0,0.5,0.1,1,0.2,1c0.1,0,0.2,0,0.2,0"/>
</g>
<g id="XMLID_16_">
	<path id="XMLID_58_" class="st1" d="M-898.7,508.2c0,0-0.1,0-0.3,0s-0.3,0.4-0.3,1v2.6c0,0.6,0.1,1,0.2,1c0.1,0,0.2,0,0.2,0"/>
</g>
<polyline class="st1" points="-804.9,484.3 -804.1,484.3 -804.1,498.6 -805.4,498.6 "/>
<path class="st1" d="M-779.5,473.7"/>
</svg>
