<?xml version="1.0" encoding="utf-8"?>
<!-- Generator: Adobe Illustrator 19.0.0, SVG Export Plug-In . SVG Version: 6.00 Build 0)  -->
<svg version="1.1" id="Capa_1" xmlns="http://www.w3.org/2000/svg" xmlns:xlink="http://www.w3.org/1999/xlink" x="0px" y="0px"
	 viewBox="-831.3 472.4 200 107.3" style="enable-background:new -831.3 472.4 200 107.3;" xml:space="preserve">
<style type="text/css">
	.st0{fill:none;stroke:#606161;stroke-miterlimit:10;}
</style>
<path id="XMLID_1_" class="st0" d="M-655.8,482.1h-157.1c0,0-14.5,0.4-14.5,12.7c0,12.3,0,62.3,0,62.3s1.4,13.9,15.8,13.8
	c14.5-0.1,157.9,0,157.9,0s13.8,0.2,14.3-13.3s0-64.1,0-64.1S-640.4,481.4-655.8,482.1z"/>
<path id="XMLID_2_" class="st0" d="M-657.4,534v-13.6c0-0.6,0.5-1.1,1.1-1.1l0,0c0.6,0,1.1,0.5,1.1,1.1V534c0,0.6-0.5,1.1-1.1,1.1
	l0,0C-656.9,535.2-657.4,534.7-657.4,534z"/>
<circle id="XMLID_3_" class="st0" cx="-656.3" cy="510.2" r="2.1"/>
<rect id="XMLID_4_" x="-801.4" y="488.3" class="st0" width="134.9" height="75.9"/>
<circle id="XMLID_5_" class="st0" cx="-813.5" cy="526.6" r="8.8"/>
<g id="XMLID_7_">
	<path id="XMLID_64_" class="st0" d="M-639.1,542.9c0,0,0.3,0,0.6,0s0.6,0.9,0.6,2v11.3c0,1.1-0.3,2-0.6,2s-0.6,0-0.6,0"/>
</g>
<g id="XMLID_8_">
	<path id="XMLID_62_" class="st0" d="M-665.6,482.2c0,0,0-0.1,0-0.3c0-0.2-0.5-0.3-1-0.3h-4.7c-0.5,0-1,0.1-1,0.2s0,0.2,0,0.2"/>
</g>
<g id="XMLID_9_">
	<path id="XMLID_60_" class="st0" d="M-684.3,482.2c0,0,0-0.1,0-0.3c0-0.2-0.5-0.3-1-0.3h-2.6c-0.5,0-1,0.1-1,0.2s0,0.2,0,0.2"/>
</g>
<g id="XMLID_16_">
	<path id="XMLID_58_" class="st0" d="M-699.6,482.2c0,0,0-0.1,0-0.3c0-0.2-0.4-0.3-1-0.3h-2.6c-0.6,0-1,0.1-1,0.2s0,0.2,0,0.2"/>
</g>
</svg>
