<?xml version="1.0" encoding="utf-8"?>
<!-- Generator: Adobe Illustrator 19.0.0, SVG Export Plug-In . SVG Version: 6.00 Build 0)  -->
<svg version="1.1" id="Capa_1" xmlns="http://www.w3.org/2000/svg" xmlns:xlink="http://www.w3.org/1999/xlink" x="0px" y="0px"
	 viewBox="-831.3 472.4 200 107.3" style="enable-background:new -831.3 472.4 200 107.3;" xml:space="preserve">
<style type="text/css">
	.st0{fill:none;stroke:#606161;stroke-miterlimit:10;}
</style>
<path id="XMLID_1_" class="st0" d="M-655.9,478.7h-156.7c0,0-14.4,0.4-14.4,13.6c0,13.2,0,67,0,67s1.3,15,15.8,14.8
	c14.4-0.1,157.5,0,157.5,0s13.7,0.3,14.2-14.2s0-68.9,0-68.9S-640.5,477.9-655.9,478.7z"/>
<path id="XMLID_2_" class="st0" d="M-657.5,533.6V520c0-0.6,0.5-1.1,1.1-1.1l0,0c0.6,0,1.1,0.5,1.1,1.1v13.6c0,0.6-0.5,1.1-1.1,1.1
	l0,0C-657,534.8-657.5,534.3-657.5,533.6z"/>
<circle id="XMLID_3_" class="st0" cx="-656.4" cy="509.8" r="2.1"/>
<rect id="XMLID_4_" x="-794.3" y="486" class="st0" width="122.4" height="81.1"/>
<circle id="XMLID_5_" class="st0" cx="-810.2" cy="526.2" r="8.8"/>
<g id="XMLID_7_">
	<path id="XMLID_64_" class="st0" d="M-639.2,542.5c0,0,0.3,0,0.6,0s0.6,0.9,0.6,2v11.3c0,1.1-0.3,2-0.6,2s-0.6,0-0.6,0"/>
</g>
<g id="XMLID_8_">
	<path id="XMLID_62_" class="st0" d="M-656.7,478.7c0,0,0-0.2,0-0.4c0-0.2-0.5-0.4-1-0.4h-6.6c-0.6,0-1,0.1-1,0.2s0,0.2,0,0.2"/>
</g>
<g id="XMLID_9_">
	<path id="XMLID_60_" class="st0" d="M-676.3,478.7c0,0,0-0.2,0-0.4c0-0.2-0.4-0.4-1-0.4h-4.4c-0.5,0-1,0.1-1,0.2s0,0.2,0,0.2"/>
</g>
<g id="XMLID_10_">
	<path id="XMLID_58_" class="st0" d="M-693,478.7c0,0,0-0.2,0-0.4c0-0.2-0.5-0.4-1-0.4h-4.1c-0.5,0-1,0.1-1,0.2s0,0.2,0,0.2"/>
</g>
</svg>
